<?xml version="1.0" encoding="UTF-8" standalone="no"?>
<!DOCTYPE svg PUBLIC "-//W3C//DTD SVG 1.1//EN"
 "http://www.w3.org/Graphics/SVG/1.1/DTD/svg11.dtd">
<!-- Generated by graphviz version 2.47.0 (20210316.0004)
 -->
<!-- Title: dependencies Pages: 1 -->
<svg width="504pt" height="211pt"
 viewBox="0.00 0.00 504.00 211.00" xmlns="http://www.w3.org/2000/svg" xmlns:xlink="http://www.w3.org/1999/xlink">
<g id="graph0" class="graph" transform="scale(1 1) rotate(0) translate(4 207)">
<title>dependencies</title>
<polygon fill="white" stroke="transparent" points="-4,4 -4,-207 500,-207 500,4 -4,4"/>
<text text-anchor="start" x="227.01" y="-42.4" font-family="sans-serif" font-weight="bold" font-size="14.00">Legend</text>
<polygon fill="#ffffb3" stroke="transparent" points="14,-10 14,-30 34,-30 34,-10 14,-10"/>
<text text-anchor="start" x="37.63" y="-15.4" font-family="sans-serif" font-size="14.00"> &#160;Declarations</text>
<polygon fill="#8dd3c7" stroke="transparent" points="127,-10 127,-30 147,-30 147,-10 127,-10"/>
<text text-anchor="start" x="150.73" y="-15.4" font-family="sans-serif" font-size="14.00"> &#160;Module</text>
<polygon fill="#80b1d3" stroke="transparent" points="213,-10 213,-30 233,-30 233,-10 213,-10"/>
<text text-anchor="start" x="236.78" y="-15.4" font-family="sans-serif" font-size="14.00"> &#160;Bootstrap</text>
<polygon fill="#fdb462" stroke="transparent" points="310,-10 310,-30 330,-30 330,-10 310,-10"/>
<text text-anchor="start" x="333.67" y="-15.4" font-family="sans-serif" font-size="14.00"> &#160;Providers</text>
<polygon fill="#fb8072" stroke="transparent" points="406,-10 406,-30 426,-30 426,-10 406,-10"/>
<text text-anchor="start" x="429.73" y="-15.4" font-family="sans-serif" font-size="14.00"> &#160;Exports</text>
<g id="clust1" class="cluster">
<title>cluster_FeedModule</title>
<polygon fill="none" stroke="black" stroke-dasharray="1,5" points="94.5,-70 94.5,-195 401.5,-195 401.5,-70 94.5,-70"/>
</g>
<g id="clust6" class="cluster">
<title>cluster_FeedModule_providers</title>
<polygon fill="none" stroke="black" points="102.5,-78 102.5,-130 393.5,-130 393.5,-78 102.5,-78"/>
</g>
<!-- FeedService -->
<g id="node1" class="node">
<title>FeedService</title>
<ellipse fill="#fdb462" stroke="black" cx="326.5" cy="-104" rx="58.53" ry="18"/>
<text text-anchor="middle" x="326.5" y="-99.8" font-family="Times,serif" font-size="14.00">FeedService</text>
</g>
<!-- FeedModule -->
<g id="node3" class="node">
<title>FeedModule</title>
<polygon fill="#8dd3c7" stroke="black" points="296.76,-187 293.76,-191 272.76,-191 269.76,-187 210.24,-187 210.24,-151 296.76,-151 296.76,-187"/>
<text text-anchor="middle" x="253.5" y="-164.8" font-family="Times,serif" font-size="14.00">FeedModule</text>
</g>
<!-- FeedService&#45;&gt;FeedModule -->
<g id="edge1" class="edge">
<title>FeedService&#45;&gt;FeedModule</title>
<path fill="none" stroke="black" d="M282.31,-115.92C282.31,-115.92 282.31,-140.77 282.31,-140.77"/>
<polygon fill="black" stroke="black" points="278.81,-140.77 282.31,-150.77 285.81,-140.77 278.81,-140.77"/>
</g>
<!-- PaginateModel -->
<g id="node2" class="node">
<title>PaginateModel</title>
<ellipse fill="#fdb462" stroke="black" cx="180.5" cy="-104" rx="69.5" ry="18"/>
<text text-anchor="middle" x="180.5" y="-99.8" font-family="Times,serif" font-size="14.00">PaginateModel</text>
</g>
<!-- PaginateModel&#45;&gt;FeedModule -->
<g id="edge2" class="edge">
<title>PaginateModel&#45;&gt;FeedModule</title>
<path fill="none" stroke="black" d="M230.06,-116.84C230.06,-116.84 230.06,-140.52 230.06,-140.52"/>
<polygon fill="black" stroke="black" points="226.56,-140.52 230.06,-150.52 233.56,-140.52 226.56,-140.52"/>
</g>
</g>
</svg>
