<?xml version="1.0" encoding="UTF-8" standalone="no"?>
<!DOCTYPE svg PUBLIC "-//W3C//DTD SVG 1.1//EN"
 "http://www.w3.org/Graphics/SVG/1.1/DTD/svg11.dtd">
<!-- Generated by graphviz version 2.47.0 (20210316.0004)
 -->
<!-- Title: dependencies Pages: 1 -->
<svg width="504pt" height="211pt"
 viewBox="0.00 0.00 504.00 211.00" xmlns="http://www.w3.org/2000/svg" xmlns:xlink="http://www.w3.org/1999/xlink">
<g id="graph0" class="graph" transform="scale(1 1) rotate(0) translate(4 207)">
<title>dependencies</title>
<polygon fill="white" stroke="transparent" points="-4,4 -4,-207 500,-207 500,4 -4,4"/>
<text text-anchor="start" x="227.01" y="-42.4" font-family="sans-serif" font-weight="bold" font-size="14.00">Legend</text>
<polygon fill="#ffffb3" stroke="transparent" points="14,-10 14,-30 34,-30 34,-10 14,-10"/>
<text text-anchor="start" x="37.63" y="-15.4" font-family="sans-serif" font-size="14.00"> &#160;Declarations</text>
<polygon fill="#8dd3c7" stroke="transparent" points="127,-10 127,-30 147,-30 147,-10 127,-10"/>
<text text-anchor="start" x="150.73" y="-15.4" font-family="sans-serif" font-size="14.00"> &#160;Module</text>
<polygon fill="#80b1d3" stroke="transparent" points="213,-10 213,-30 233,-30 233,-10 213,-10"/>
<text text-anchor="start" x="236.78" y="-15.4" font-family="sans-serif" font-size="14.00"> &#160;Bootstrap</text>
<polygon fill="#fdb462" stroke="transparent" points="310,-10 310,-30 330,-30 330,-10 310,-10"/>
<text text-anchor="start" x="333.67" y="-15.4" font-family="sans-serif" font-size="14.00"> &#160;Providers</text>
<polygon fill="#fb8072" stroke="transparent" points="406,-10 406,-30 426,-30 426,-10 406,-10"/>
<text text-anchor="start" x="429.73" y="-15.4" font-family="sans-serif" font-size="14.00"> &#160;Exports</text>
<g id="clust1" class="cluster">
<title>cluster_AppModule</title>
<polygon fill="none" stroke="black" stroke-dasharray="1,5" points="15,-70 15,-195 481,-195 481,-70 15,-70"/>
</g>
<g id="clust3" class="cluster">
<title>cluster_AppModule_imports</title>
<polygon fill="none" stroke="black" points="161,-78 161,-130 473,-130 473,-78 161,-78"/>
</g>
<g id="clust6" class="cluster">
<title>cluster_AppModule_providers</title>
<polygon fill="none" stroke="black" points="23,-78 23,-130 153,-130 153,-78 23,-78"/>
</g>
<!-- AuthModule -->
<g id="node1" class="node">
<title>AuthModule</title>
<polygon fill="#8dd3c7" stroke="black" points="464.55,-122 461.55,-126 440.55,-126 437.55,-122 377.45,-122 377.45,-86 464.55,-86 464.55,-122"/>
<text text-anchor="middle" x="421" y="-99.8" font-family="Times,serif" font-size="14.00">AuthModule</text>
</g>
<!-- AppModule -->
<g id="node4" class="node">
<title>AppModule</title>
<polygon fill="#8dd3c7" stroke="black" points="305.66,-187 302.66,-191 281.66,-191 278.66,-187 222.34,-187 222.34,-151 305.66,-151 305.66,-187"/>
<text text-anchor="middle" x="264" y="-164.8" font-family="Times,serif" font-size="14.00">AppModule</text>
</g>
<!-- AuthModule&#45;&gt;AppModule -->
<g id="edge1" class="edge">
<title>AuthModule&#45;&gt;AppModule</title>
<path fill="none" stroke="black" d="M421,-122.11C421,-141.34 421,-169 421,-169 421,-169 315.66,-169 315.66,-169"/>
<polygon fill="black" stroke="black" points="315.66,-165.5 305.66,-169 315.66,-172.5 315.66,-165.5"/>
</g>
<!-- FeedModule -->
<g id="node2" class="node">
<title>FeedModule</title>
<polygon fill="#8dd3c7" stroke="black" points="359.26,-122 356.26,-126 335.26,-126 332.26,-122 272.74,-122 272.74,-86 359.26,-86 359.26,-122"/>
<text text-anchor="middle" x="316" y="-99.8" font-family="Times,serif" font-size="14.00">FeedModule</text>
</g>
<!-- FeedModule&#45;&gt;AppModule -->
<g id="edge2" class="edge">
<title>FeedModule&#45;&gt;AppModule</title>
<path fill="none" stroke="black" d="M289.22,-122.11C289.22,-122.11 289.22,-140.99 289.22,-140.99"/>
<polygon fill="black" stroke="black" points="285.72,-140.99 289.22,-150.99 292.72,-140.99 285.72,-140.99"/>
</g>
<!-- UserModule -->
<g id="node3" class="node">
<title>UserModule</title>
<polygon fill="#8dd3c7" stroke="black" points="254.98,-122 251.98,-126 230.98,-126 227.98,-122 169.02,-122 169.02,-86 254.98,-86 254.98,-122"/>
<text text-anchor="middle" x="212" y="-99.8" font-family="Times,serif" font-size="14.00">UserModule</text>
</g>
<!-- UserModule&#45;&gt;AppModule -->
<g id="edge3" class="edge">
<title>UserModule&#45;&gt;AppModule</title>
<path fill="none" stroke="black" d="M238.58,-122.11C238.58,-122.11 238.58,-140.99 238.58,-140.99"/>
<polygon fill="black" stroke="black" points="235.08,-140.99 238.58,-150.99 242.08,-140.99 235.08,-140.99"/>
</g>
<!-- AppService -->
<g id="node5" class="node">
<title>AppService</title>
<ellipse fill="#fdb462" stroke="black" cx="88" cy="-104" rx="56.74" ry="18"/>
<text text-anchor="middle" x="88" y="-99.8" font-family="Times,serif" font-size="14.00">AppService</text>
</g>
<!-- AppService&#45;&gt;AppModule -->
<g id="edge4" class="edge">
<title>AppService&#45;&gt;AppModule</title>
<path fill="none" stroke="black" d="M88,-122.11C88,-141.34 88,-169 88,-169 88,-169 212.29,-169 212.29,-169"/>
<polygon fill="black" stroke="black" points="212.29,-172.5 222.29,-169 212.29,-165.5 212.29,-172.5"/>
</g>
</g>
</svg>
